<?xml version="1.0" encoding="UTF-8" standalone="no"?>
<!-- Created with Inkscape (http://www.inkscape.org/) -->

<svg
   width="32"
   height="32.00005"
   viewBox="0 0 8.4666668 8.4666798"
   version="1.1"
   id="svg1"
   xml:space="preserve"
   xmlns="http://www.w3.org/2000/svg"
   xmlns:svg="http://www.w3.org/2000/svg"><defs
     id="defs1" /><g
     id="layer1"
     transform="translate(-87.922636,-144.26666)"><g
       style="fill:none"
       id="g1"
       transform="matrix(0.26458333,0,0,0.26458333,87.922636,144.26666)"><path
         d="M 25.990121,4.801204 17.043296,1.445007 C 16.372085,1.1768759 15.62607,1.1768759 14.956613,1.4304151 l -8.9449631,3.35438 C 4.8479223,5.2335014 4.0727128,6.3370368 4.0727128,7.5883177 v 7.0079263 c 0,7.201236 4.6676738,13.970157 11.0773212,16.027693 0.550841,0.178756 1.147247,0.178756 1.699932,0 6.411501,-2.057536 11.077322,-8.811883 11.077322,-16.027693 V 7.5883177 C 27.92546,6.3461591 27.152033,5.2353278 25.988368,4.799387 Z m -3.487489,10.210845 h -3.06984 l -0.0073,0.0037 c -0.373931,0.773409 -1.001421,1.400806 -1.776582,1.772984 v 4.007338 c 0,0.910196 -0.736883,1.64708 -1.64708,1.64708 -0.910197,0 -1.64708,-0.736884 -1.64708,-1.64708 v -4.007338 c -1.275032,-0.614761 -2.157853,-1.915307 -2.157853,-3.425599 0,-2.101256 1.703677,-3.8048681 3.804933,-3.8048681 1.907927,0 3.482047,1.4044861 3.757468,3.2340121 l 0.0055,0.0055 c 0.510718,0.576389 2.044714,1.161912 2.778001,1.161912 0.733285,0 0.786137,1.052426 -0.04012,1.052426 z"
         fill="#7d51fa"
         id="path1"
         style="stroke-width:0.922374" /></g></g></svg>
